<svg width="24" height="17" viewBox="0 0 24 17" fill="none" xmlns="http://www.w3.org/2000/svg">
<g clip-path="url(#clip0_685_302)">
<path d="M2.41872 2.29401L12.7075 3.15786L10.7327 14.0895L0.310749 14.5702L2.41872 2.29401Z" fill="#DFD0E6"/>
<path d="M2.41872 2.29401L12.7075 3.15786L10.7327 14.0895L0.310749 14.5702L2.41872 2.29401Z" fill="url(#paint0_linear_685_302)"/>
<path d="M2.41872 2.29401L12.7075 3.15786L10.7327 14.0895L0.310749 14.5702L2.41872 2.29401Z" fill="url(#paint1_linear_685_302)"/>
<path d="M2.41872 2.29401L12.7075 3.15786L10.7327 14.0895L0.310749 14.5702L2.41872 2.29401Z" fill="url(#paint2_linear_685_302)"/>
<path d="M21.2875 14.5782L10.9601 13.5746L12.935 2.64296L23.3569 2.16228L21.2875 14.5782Z" fill="url(#paint3_linear_685_302)"/>
<path d="M21.2875 14.5782L10.9601 13.5746L12.935 2.64296L23.3569 2.16228L21.2875 14.5782Z" fill="url(#paint4_linear_685_302)"/>
<path d="M21.2875 14.5782L10.9601 13.5746L12.935 2.64296L23.3569 2.16228L21.2875 14.5782Z" fill="url(#paint5_linear_685_302)"/>
<path d="M21.2443 14.7719L21.2969 14.5409C21.333 14.382 21.2692 14.2171 21.1355 14.124L12.198 7.89748C12.0721 7.80973 11.907 7.8018 11.7732 7.87707L0.56281 14.1842C0.42949 14.2592 0.337842 14.3911 0.314059 14.5422L0.276055 14.7837C0.180551 15.3905 0.649617 15.9392 1.2639 15.9392H19.7817C20.4819 15.9392 21.089 15.4547 21.2443 14.7719Z" fill="#E6D8F1"/>
<path d="M21.2443 14.7719L21.2969 14.5409C21.333 14.382 21.2692 14.2171 21.1355 14.124L12.198 7.89748C12.0721 7.80973 11.907 7.8018 11.7732 7.87707L0.56281 14.1842C0.42949 14.2592 0.337842 14.3911 0.314059 14.5422L0.276055 14.7837C0.180551 15.3905 0.649617 15.9392 1.2639 15.9392H19.7817C20.4819 15.9392 21.089 15.4547 21.2443 14.7719Z" fill="url(#paint6_linear_685_302)"/>
<path d="M21.2443 14.7719L21.2969 14.5409C21.333 14.382 21.2692 14.2171 21.1355 14.124L12.198 7.89748C12.0721 7.80973 11.907 7.8018 11.7732 7.87707L0.56281 14.1842C0.42949 14.2592 0.337842 14.3911 0.314059 14.5422L0.276055 14.7837C0.180551 15.3905 0.649617 15.9392 1.2639 15.9392H19.7817C20.4819 15.9392 21.089 15.4547 21.2443 14.7719Z" fill="url(#paint7_linear_685_302)"/>
<path d="M21.2443 14.7719L21.2969 14.5409C21.333 14.382 21.2692 14.2171 21.1355 14.124L12.198 7.89748C12.0721 7.80973 11.907 7.8018 11.7732 7.87707L0.56281 14.1842C0.42949 14.2592 0.337842 14.3911 0.314059 14.5422L0.276055 14.7837C0.180551 15.3905 0.649617 15.9392 1.2639 15.9392H19.7817C20.4819 15.9392 21.089 15.4547 21.2443 14.7719Z" fill="url(#paint8_linear_685_302)"/>
<path d="M21.2443 14.7719L21.2969 14.5409C21.333 14.382 21.2692 14.2171 21.1355 14.124L12.198 7.89748C12.0721 7.80973 11.907 7.8018 11.7732 7.87707L0.56281 14.1842C0.42949 14.2592 0.337842 14.3911 0.314059 14.5422L0.276055 14.7837C0.180551 15.3905 0.649617 15.9392 1.2639 15.9392H19.7817C20.4819 15.9392 21.089 15.4547 21.2443 14.7719Z" fill="url(#paint9_linear_685_302)"/>
<path d="M21.2443 14.7719L21.2969 14.5409C21.333 14.382 21.2692 14.2171 21.1355 14.124L12.198 7.89748C12.0721 7.80973 11.907 7.8018 11.7732 7.87707L0.56281 14.1842C0.42949 14.2592 0.337842 14.3911 0.314059 14.5422L0.276055 14.7837C0.180551 15.3905 0.649617 15.9392 1.2639 15.9392H19.7817C20.4819 15.9392 21.089 15.4547 21.2443 14.7719Z" fill="url(#paint10_radial_685_302)"/>
<g filter="url(#filter0_ii_685_302)">
<path d="M2.46587 2.0774L2.41331 2.30844C2.37716 2.46732 2.441 2.63224 2.57469 2.72538L11.5117 8.95158C11.6379 9.03947 11.8033 9.04727 11.9371 8.97165L23.1096 2.66028C23.2097 2.60371 23.2807 2.50678 23.3043 2.39422L23.3628 2.11567C23.4933 1.49426 23.0191 0.910156 22.3842 0.910156H3.92849C3.22827 0.910156 2.6212 1.39462 2.46587 2.0774Z" fill="url(#paint11_linear_685_302)"/>
<path d="M2.46587 2.0774L2.41331 2.30844C2.37716 2.46732 2.441 2.63224 2.57469 2.72538L11.5117 8.95158C11.6379 9.03947 11.8033 9.04727 11.9371 8.97165L23.1096 2.66028C23.2097 2.60371 23.2807 2.50678 23.3043 2.39422L23.3628 2.11567C23.4933 1.49426 23.0191 0.910156 22.3842 0.910156H3.92849C3.22827 0.910156 2.6212 1.39462 2.46587 2.0774Z" fill="url(#paint12_linear_685_302)"/>
<path d="M2.46587 2.0774L2.41331 2.30844C2.37716 2.46732 2.441 2.63224 2.57469 2.72538L11.5117 8.95158C11.6379 9.03947 11.8033 9.04727 11.9371 8.97165L23.1096 2.66028C23.2097 2.60371 23.2807 2.50678 23.3043 2.39422L23.3628 2.11567C23.4933 1.49426 23.0191 0.910156 22.3842 0.910156H3.92849C3.22827 0.910156 2.6212 1.39462 2.46587 2.0774Z" fill="url(#paint13_linear_685_302)"/>
<path d="M2.46587 2.0774L2.41331 2.30844C2.37716 2.46732 2.441 2.63224 2.57469 2.72538L11.5117 8.95158C11.6379 9.03947 11.8033 9.04727 11.9371 8.97165L23.1096 2.66028C23.2097 2.60371 23.2807 2.50678 23.3043 2.39422L23.3628 2.11567C23.4933 1.49426 23.0191 0.910156 22.3842 0.910156H3.92849C3.22827 0.910156 2.6212 1.39462 2.46587 2.0774Z" fill="url(#paint14_radial_685_302)"/>
</g>
</g>
<defs>
<filter id="filter0_ii_685_302" x="2.40332" y="0.810156" width="20.9814" height="8.41328" filterUnits="userSpaceOnUse" color-interpolation-filters="sRGB">
<feFlood flood-opacity="0" result="BackgroundImageFix"/>
<feBlend mode="normal" in="SourceGraphic" in2="BackgroundImageFix" result="shape"/>
<feColorMatrix in="SourceAlpha" type="matrix" values="0 0 0 0 0 0 0 0 0 0 0 0 0 0 0 0 0 0 127 0" result="hardAlpha"/>
<feOffset dy="0.2"/>
<feGaussianBlur stdDeviation="0.25"/>
<feComposite in2="hardAlpha" operator="arithmetic" k2="-1" k3="1"/>
<feColorMatrix type="matrix" values="0 0 0 0 0.87451 0 0 0 0 0.858824 0 0 0 0 0.854902 0 0 0 1 0"/>
<feBlend mode="normal" in2="shape" result="effect1_innerShadow_685_302"/>
<feColorMatrix in="SourceAlpha" type="matrix" values="0 0 0 0 0 0 0 0 0 0 0 0 0 0 0 0 0 0 127 0" result="hardAlpha"/>
<feOffset dy="-0.1"/>
<feGaussianBlur stdDeviation="0.2"/>
<feComposite in2="hardAlpha" operator="arithmetic" k2="-1" k3="1"/>
<feColorMatrix type="matrix" values="0 0 0 0 0.85098 0 0 0 0 0.737255 0 0 0 0 0.929412 0 0 0 1 0"/>
<feBlend mode="normal" in2="effect1_innerShadow_685_302" result="effect2_innerShadow_685_302"/>
</filter>
<linearGradient id="paint0_linear_685_302" x1="7.62329" y1="10.4686" x2="7.29517" y2="9.81235" gradientUnits="userSpaceOnUse">
<stop offset="0.2" stop-color="#DAC7DE"/>
<stop offset="1" stop-color="#DAC7DE" stop-opacity="0"/>
</linearGradient>
<linearGradient id="paint1_linear_685_302" x1="1.51392" y1="7.4061" x2="4.32642" y2="7.87485" gradientUnits="userSpaceOnUse">
<stop offset="0.0648649" stop-color="#CEB9C1"/>
<stop offset="1" stop-color="#DBCAE1" stop-opacity="0"/>
</linearGradient>
<linearGradient id="paint2_linear_685_302" x1="9.13892" y1="6.7186" x2="7.67017" y2="8.5311" gradientUnits="userSpaceOnUse">
<stop offset="0.228652" stop-color="#CAA9DD"/>
<stop offset="1" stop-color="#D5BFE2" stop-opacity="0"/>
</linearGradient>
<linearGradient id="paint3_linear_685_302" x1="21.8891" y1="9.65628" x2="19.4516" y2="9.21878" gradientUnits="userSpaceOnUse">
<stop offset="0.142178" stop-color="#F2EDF9"/>
<stop offset="1" stop-color="#EDE3F8"/>
</linearGradient>
<linearGradient id="paint4_linear_685_302" x1="17.2426" y1="12.2813" x2="18.3578" y2="10.7813" gradientUnits="userSpaceOnUse">
<stop stop-color="#F6EDFF"/>
<stop offset="1" stop-color="#F6EDFF" stop-opacity="0"/>
</linearGradient>
<linearGradient id="paint5_linear_685_302" x1="14.0453" y1="7.46878" x2="15.1703" y2="9.09378" gradientUnits="userSpaceOnUse">
<stop offset="0.0782194" stop-color="#E3D0F4"/>
<stop offset="1" stop-color="#EBDDF9" stop-opacity="0"/>
</linearGradient>
<linearGradient id="paint6_linear_685_302" x1="10.7853" y1="7.82568" x2="10.7853" y2="15.6873" gradientUnits="userSpaceOnUse">
<stop stop-color="#E6D9F2"/>
<stop offset="1" stop-color="#E1CEF3"/>
</linearGradient>
<linearGradient id="paint7_linear_685_302" x1="10.7853" y1="13.2811" x2="10.7853" y2="15.9392" gradientUnits="userSpaceOnUse">
<stop stop-color="#DAC1F0" stop-opacity="0"/>
<stop offset="1" stop-color="#CCA3EA"/>
</linearGradient>
<linearGradient id="paint8_linear_685_302" x1="15.8577" y1="10.1561" x2="15.3655" y2="10.8592" gradientUnits="userSpaceOnUse">
<stop offset="0.311503" stop-color="#F6F1FB"/>
<stop offset="1" stop-color="#E5D6F4" stop-opacity="0"/>
</linearGradient>
<linearGradient id="paint9_linear_685_302" x1="6.56249" y1="10.8416" x2="6.74356" y2="11.1585" gradientUnits="userSpaceOnUse">
<stop stop-color="#DCC9D5"/>
<stop offset="1" stop-color="#E6D7F4" stop-opacity="0"/>
</linearGradient>
<radialGradient id="paint10_radial_685_302" cx="0" cy="0" r="1" gradientUnits="userSpaceOnUse" gradientTransform="translate(10.6817 8.0917) rotate(38.0888) scale(1.59598 1.12561)">
<stop stop-color="#D8C2E7"/>
<stop offset="1" stop-color="#D8C2E7" stop-opacity="0"/>
</radialGradient>
<linearGradient id="paint11_linear_685_302" x1="3.13904" y1="2.99985" x2="22.514" y2="2.99985" gradientUnits="userSpaceOnUse">
<stop stop-color="#E5DAE4"/>
<stop offset="1" stop-color="#EEE7F3"/>
</linearGradient>
<linearGradient id="paint12_linear_685_302" x1="8.17029" y1="6.56235" x2="9.67029" y2="4.37485" gradientUnits="userSpaceOnUse">
<stop stop-color="#DECEE7"/>
<stop offset="1" stop-color="#E9E0EA" stop-opacity="0"/>
</linearGradient>
<linearGradient id="paint13_linear_685_302" x1="2.40332" y1="1.74985" x2="5.13904" y2="2.6561" gradientUnits="userSpaceOnUse">
<stop stop-color="#D6C0BE"/>
<stop offset="1" stop-color="#E1D0D7" stop-opacity="0"/>
</linearGradient>
<radialGradient id="paint14_radial_685_302" cx="0" cy="0" r="1" gradientUnits="userSpaceOnUse" gradientTransform="translate(22.889 2.7186) rotate(150.32) scale(12.733 4.85474)">
<stop stop-color="#FBF9FE"/>
<stop offset="1" stop-color="#E9E3EB" stop-opacity="0"/>
</radialGradient>
<clipPath id="clip0_685_302">
<rect width="24" height="16.3784" fill="white"/>
</clipPath>
</defs>
</svg>
