<svg width="620" height="485" viewBox="0 0 620 485" fill="none" xmlns="http://www.w3.org/2000/svg">
<g clip-path="url(#clip0_664_264)">
<g clip-path="url(#clip1_664_264)">
<path d="M150.996 81.5148L348.399 86.479L322.944 297.401L124.505 318.256L150.996 81.5148Z" fill="#DFD0E6"/>
<path d="M150.996 81.5148L348.399 86.479L322.944 297.401L124.505 318.256L150.996 81.5148Z" fill="url(#paint0_linear_664_264)"/>
<path d="M150.996 81.5148L348.399 86.479L322.944 297.401L124.505 318.256L150.996 81.5148Z" fill="url(#paint1_linear_664_264)"/>
<path d="M150.996 81.5148L348.399 86.479L322.944 297.401L124.505 318.256L150.996 81.5148Z" fill="url(#paint2_linear_664_264)"/>
<path d="M525.002 294.899L326.705 287.311L352.161 76.3896L550.599 55.5348L525.002 294.899Z" fill="url(#paint3_linear_664_264)"/>
<path d="M525.002 294.899L326.705 287.311L352.161 76.3896L550.599 55.5348L525.002 294.899Z" fill="url(#paint4_linear_664_264)"/>
<path d="M525.002 294.899L326.705 287.311L352.161 76.3896L550.599 55.5348L525.002 294.899Z" fill="url(#paint5_linear_664_264)"/>
<path d="M524.384 298.65L525.128 294.18C525.64 291.106 524.237 288.029 521.58 286.401L343.968 177.538C341.465 176.004 338.305 176.038 335.835 177.624L128.871 310.603C126.41 312.184 124.808 314.805 124.523 317.717L124.068 322.37C122.925 334.062 132.495 344.011 144.223 343.323L497.767 322.574C511.136 321.79 522.183 311.86 524.384 298.65Z" fill="#E6D8F1"/>
<path d="M524.384 298.65L525.128 294.18C525.64 291.106 524.237 288.029 521.58 286.401L343.968 177.538C341.465 176.004 338.305 176.038 335.835 177.624L128.871 310.603C126.41 312.184 124.808 314.805 124.523 317.717L124.068 322.37C122.925 334.062 132.495 344.011 144.223 343.323L497.767 322.574C511.136 321.79 522.183 311.86 524.384 298.65Z" fill="url(#paint6_linear_664_264)"/>
<path d="M524.384 298.65L525.128 294.18C525.64 291.106 524.237 288.029 521.58 286.401L343.968 177.538C341.465 176.004 338.305 176.038 335.835 177.624L128.871 310.603C126.41 312.184 124.808 314.805 124.523 317.717L124.068 322.37C122.925 334.062 132.495 344.011 144.223 343.323L497.767 322.574C511.136 321.79 522.183 311.86 524.384 298.65Z" fill="url(#paint7_linear_664_264)"/>
<path d="M524.384 298.65L525.128 294.18C525.64 291.106 524.237 288.029 521.58 286.401L343.968 177.538C341.465 176.004 338.305 176.038 335.835 177.624L128.871 310.603C126.41 312.184 124.808 314.805 124.523 317.717L124.068 322.37C122.925 334.062 132.495 344.011 144.223 343.323L497.767 322.574C511.136 321.79 522.183 311.86 524.384 298.65Z" fill="url(#paint8_linear_664_264)"/>
<path d="M524.384 298.65L525.128 294.18C525.64 291.106 524.237 288.029 521.58 286.401L343.968 177.538C341.465 176.004 338.305 176.038 335.835 177.624L128.871 310.603C126.41 312.184 124.808 314.805 124.523 317.717L124.068 322.37C122.925 334.062 132.495 344.011 144.223 343.323L497.767 322.574C511.136 321.79 522.183 311.86 524.384 298.65Z" fill="url(#paint9_linear_664_264)"/>
<path d="M524.384 298.65L525.128 294.18C525.64 291.106 524.237 288.029 521.58 286.401L343.968 177.538C341.465 176.004 338.305 176.038 335.835 177.624L128.871 310.603C126.41 312.184 124.808 314.805 124.523 317.717L124.068 322.37C122.925 334.062 132.495 344.011 144.223 343.323L497.767 322.574C511.136 321.79 522.183 311.86 524.384 298.65Z" fill="url(#paint10_radial_664_264)"/>
<g filter="url(#filter0_i_664_264)">
<path d="M19.3275 97.3008C18.9045 90.0928 24.4048 83.9066 31.6128 83.4835L119.019 78.3538C126.227 77.9308 132.413 83.4311 132.836 90.6391C133.259 97.8471 127.759 104.033 120.551 104.456L33.1447 109.586C25.9367 110.009 19.7505 104.509 19.3275 97.3008Z" fill="url(#paint11_radial_664_264)"/>
<path d="M19.3275 97.3008C18.9045 90.0928 24.4048 83.9066 31.6128 83.4835L119.019 78.3538C126.227 77.9308 132.413 83.4311 132.836 90.6391C133.259 97.8471 127.759 104.033 120.551 104.456L33.1447 109.586C25.9367 110.009 19.7505 104.509 19.3275 97.3008Z" fill="url(#paint12_radial_664_264)"/>
<path d="M19.3275 97.3008C18.9045 90.0928 24.4048 83.9066 31.6128 83.4835L119.019 78.3538C126.227 77.9308 132.413 83.4311 132.836 90.6391C133.259 97.8471 127.759 104.033 120.551 104.456L33.1447 109.586C25.9367 110.009 19.7505 104.509 19.3275 97.3008Z" fill="url(#paint13_radial_664_264)"/>
</g>
<g filter="url(#filter1_i_664_264)">
<path d="M28.3109 250.184C27.8879 242.976 33.3882 236.79 40.5962 236.367L90.4148 233.443C97.6228 233.02 103.809 238.52 104.232 245.728C104.655 252.936 99.1547 259.123 91.9467 259.546L42.1281 262.469C34.9201 262.892 28.7339 257.392 28.3109 250.184Z" fill="url(#paint14_radial_664_264)"/>
<path d="M28.3109 250.184C27.8879 242.976 33.3882 236.79 40.5962 236.367L90.4148 233.443C97.6228 233.02 103.809 238.52 104.232 245.728C104.655 252.936 99.1547 259.123 91.9467 259.546L42.1281 262.469C34.9201 262.892 28.7339 257.392 28.3109 250.184Z" fill="url(#paint15_radial_664_264)"/>
<path d="M28.3109 250.184C27.8879 242.976 33.3882 236.79 40.5962 236.367L90.4148 233.443C97.6228 233.02 103.809 238.52 104.232 245.728C104.655 252.936 99.1547 259.123 91.9467 259.546L42.1281 262.469C34.9201 262.892 28.7339 257.392 28.3109 250.184Z" fill="url(#paint16_radial_664_264)"/>
</g>
<g filter="url(#filter2_i_664_264)">
<path d="M23.8099 173.521C23.3869 166.313 28.8872 160.127 36.0952 159.704L105.752 155.615C112.96 155.192 119.146 160.693 119.569 167.901C119.992 175.109 114.492 181.295 107.284 181.718L37.6271 185.806C30.4191 186.229 24.2329 180.729 23.8099 173.521Z" fill="url(#paint17_radial_664_264)"/>
<path d="M23.8099 173.521C23.3869 166.313 28.8872 160.127 36.0952 159.704L105.752 155.615C112.96 155.192 119.146 160.693 119.569 167.901C119.992 175.109 114.492 181.295 107.284 181.718L37.6271 185.806C30.4191 186.229 24.2329 180.729 23.8099 173.521Z" fill="url(#paint18_radial_664_264)"/>
<path d="M23.8099 173.521C23.3869 166.313 28.8872 160.127 36.0952 159.704L105.752 155.615C112.96 155.192 119.146 160.693 119.569 167.901C119.992 175.109 114.492 181.295 107.284 181.718L37.6271 185.806C30.4191 186.229 24.2329 180.729 23.8099 173.521Z" fill="url(#paint19_radial_664_264)"/>
</g>
<g filter="url(#filter3_ii_664_264)">
<path d="M151.651 77.3243L150.907 81.7942C150.395 84.868 151.798 87.9452 154.455 89.5736L332.059 198.431C334.566 199.968 337.732 199.932 340.203 198.338L546.438 65.3215C548.286 64.1293 549.532 62.199 549.857 60.0236L550.662 54.64C552.457 42.6297 542.749 32.0092 530.627 32.7207L178.268 53.4002C164.899 54.1848 153.852 64.1145 151.651 77.3243Z" fill="url(#paint20_linear_664_264)"/>
<path d="M151.651 77.3243L150.907 81.7942C150.395 84.868 151.798 87.9452 154.455 89.5736L332.059 198.431C334.566 199.968 337.732 199.932 340.203 198.338L546.438 65.3215C548.286 64.1293 549.532 62.199 549.857 60.0236L550.662 54.64C552.457 42.6297 542.749 32.0092 530.627 32.7207L178.268 53.4002C164.899 54.1848 153.852 64.1145 151.651 77.3243Z" fill="url(#paint21_linear_664_264)"/>
<path d="M151.651 77.3243L150.907 81.7942C150.395 84.868 151.798 87.9452 154.455 89.5736L332.059 198.431C334.566 199.968 337.732 199.932 340.203 198.338L546.438 65.3215C548.286 64.1293 549.532 62.199 549.857 60.0236L550.662 54.64C552.457 42.6297 542.749 32.0092 530.627 32.7207L178.268 53.4002C164.899 54.1848 153.852 64.1145 151.651 77.3243Z" fill="url(#paint22_linear_664_264)"/>
<path d="M151.651 77.3243L150.907 81.7942C150.395 84.868 151.798 87.9452 154.455 89.5736L332.059 198.431C334.566 199.968 337.732 199.932 340.203 198.338L546.438 65.3215C548.286 64.1293 549.532 62.199 549.857 60.0236L550.662 54.64C552.457 42.6297 542.749 32.0092 530.627 32.7207L178.268 53.4002C164.899 54.1848 153.852 64.1145 151.651 77.3243Z" fill="url(#paint23_radial_664_264)"/>
</g>
</g>
<g clip-path="url(#clip2_664_264)">
<path d="M442.255 341.763C440.214 345.403 436.688 347.973 432.597 348.802L400.47 355.311C395.492 356.319 394.186 362.824 398.389 365.676L425.638 384.165C429.099 386.513 431.361 390.256 431.833 394.412L436.77 437.946C437.398 443.483 444.757 444.961 447.474 440.095L468.765 401.962C470.798 398.32 474.317 395.744 478.404 394.906L510.866 388.254C515.83 387.237 517.132 380.753 512.945 377.898L485.69 359.315C482.251 356.97 480.001 353.247 479.524 349.112L474.496 305.491C473.86 299.965 466.519 298.491 463.798 303.343L442.255 341.763Z" fill="url(#paint24_linear_664_264)"/>
<path d="M442.255 341.763C440.214 345.403 436.688 347.973 432.597 348.802L400.47 355.311C395.492 356.319 394.186 362.824 398.389 365.676L425.638 384.165C429.099 386.513 431.361 390.256 431.833 394.412L436.77 437.946C437.398 443.483 444.757 444.961 447.474 440.095L468.765 401.962C470.798 398.32 474.317 395.744 478.404 394.906L510.866 388.254C515.83 387.237 517.132 380.753 512.945 377.898L485.69 359.315C482.251 356.97 480.001 353.247 479.524 349.112L474.496 305.491C473.86 299.965 466.519 298.491 463.798 303.343L442.255 341.763Z" fill="url(#paint25_linear_664_264)"/>
<path d="M442.255 341.763C440.214 345.403 436.688 347.973 432.597 348.802L400.47 355.311C395.492 356.319 394.186 362.824 398.389 365.676L425.638 384.165C429.099 386.513 431.361 390.256 431.833 394.412L436.77 437.946C437.398 443.483 444.757 444.961 447.474 440.095L468.765 401.962C470.798 398.32 474.317 395.744 478.404 394.906L510.866 388.254C515.83 387.237 517.132 380.753 512.945 377.898L485.69 359.315C482.251 356.97 480.001 353.247 479.524 349.112L474.496 305.491C473.86 299.965 466.519 298.491 463.798 303.343L442.255 341.763Z" fill="url(#paint26_linear_664_264)"/>
<path d="M442.255 341.763C440.214 345.403 436.688 347.973 432.597 348.802L400.47 355.311C395.492 356.319 394.186 362.824 398.389 365.676L425.638 384.165C429.099 386.513 431.361 390.256 431.833 394.412L436.77 437.946C437.398 443.483 444.757 444.961 447.474 440.095L468.765 401.962C470.798 398.32 474.317 395.744 478.404 394.906L510.866 388.254C515.83 387.237 517.132 380.753 512.945 377.898L485.69 359.315C482.251 356.97 480.001 353.247 479.524 349.112L474.496 305.491C473.86 299.965 466.519 298.491 463.798 303.343L442.255 341.763Z" fill="url(#paint27_radial_664_264)"/>
<path d="M434.024 388.549L429.166 387.574C428.205 386.258 427.016 385.101 425.638 384.165L398.389 365.676C394.186 362.824 395.492 356.319 400.47 355.311L432.597 348.802C436.688 347.973 440.214 345.403 442.255 341.763L463.798 303.343C466.519 298.491 473.86 299.965 474.496 305.491L479.524 349.112C480.001 353.247 482.251 356.97 485.69 359.315L512.945 377.898C517.132 380.753 515.83 387.237 510.866 388.254L428.664 376.781C427.108 377.1 432.851 383.013 434.024 388.549Z" fill="url(#paint28_linear_664_264)"/>
<path d="M434.024 388.549L429.166 387.574C428.205 386.258 427.016 385.101 425.638 384.165L398.389 365.676C394.186 362.824 395.492 356.319 400.47 355.311L432.597 348.802C436.688 347.973 440.214 345.403 442.255 341.763L463.798 303.343C466.519 298.491 473.86 299.965 474.496 305.491L479.524 349.112C480.001 353.247 482.251 356.97 485.69 359.315L512.945 377.898C517.132 380.753 515.83 387.237 510.866 388.254L428.664 376.781C427.108 377.1 432.851 383.013 434.024 388.549Z" fill="url(#paint29_linear_664_264)"/>
<path d="M429.166 387.578C430.617 389.566 431.549 391.917 431.832 394.417L436.769 437.95C437.397 443.488 444.757 444.965 447.474 440.099L468.764 401.966C470.024 399.711 471.852 397.865 474.033 396.587L429.166 387.578Z" fill="url(#paint30_linear_664_264)"/>
<g filter="url(#filter4_f_664_264)">
<path d="M472.274 308.868L475.834 347.479C476.491 354.598 480.43 361.004 486.486 364.804L509.017 378.937" stroke="url(#paint31_radial_664_264)" stroke-width="1.14686" stroke-linecap="round"/>
</g>
<g filter="url(#filter5_f_664_264)">
<path d="M442.194 445.026L462.606 407.086" stroke="url(#paint32_linear_664_264)" stroke-width="1.14686" stroke-linecap="round"/>
</g>
<g filter="url(#filter6_f_664_264)">
<path d="M440.471 353.477L465.071 307.422" stroke="url(#paint33_linear_664_264)" stroke-width="1.14686" stroke-linecap="round"/>
</g>
<path d="M640.02 262.341C637.979 265.981 634.453 268.551 630.362 269.38L615.666 272.357C612.937 272.91 612.221 276.475 614.525 278.038L626.995 286.5C630.456 288.848 632.719 292.591 633.19 296.747L635.561 317.648C635.905 320.683 639.939 321.493 641.428 318.826L651.649 300.518C653.683 296.876 657.202 294.3 661.288 293.463L676.171 290.413C678.892 289.855 679.605 286.302 677.311 284.737L664.82 276.22C661.381 273.876 659.131 270.152 658.654 266.017L656.238 245.052C655.889 242.024 651.866 241.216 650.374 243.875L640.02 262.341Z" fill="url(#paint34_linear_664_264)"/>
<path d="M640.02 262.341C637.979 265.981 634.453 268.551 630.362 269.38L615.666 272.357C612.937 272.91 612.221 276.475 614.525 278.038L626.995 286.5C630.456 288.848 632.719 292.591 633.19 296.747L635.561 317.648C635.905 320.683 639.939 321.493 641.428 318.826L651.649 300.518C653.683 296.876 657.202 294.3 661.288 293.463L676.171 290.413C678.892 289.855 679.605 286.302 677.311 284.737L664.82 276.22C661.381 273.876 659.131 270.152 658.654 266.017L656.238 245.052C655.889 242.024 651.866 241.216 650.374 243.875L640.02 262.341Z" fill="url(#paint35_linear_664_264)"/>
<path d="M640.02 262.341C637.979 265.981 634.453 268.551 630.362 269.38L615.666 272.357C612.937 272.91 612.221 276.475 614.525 278.038L626.995 286.5C630.456 288.848 632.719 292.591 633.19 296.747L635.561 317.648C635.905 320.683 639.939 321.493 641.428 318.826L651.649 300.518C653.683 296.876 657.202 294.3 661.288 293.463L676.171 290.413C678.892 289.855 679.605 286.302 677.311 284.737L664.82 276.22C661.381 273.876 659.131 270.152 658.654 266.017L656.238 245.052C655.889 242.024 651.866 241.216 650.374 243.875L640.02 262.341Z" fill="url(#paint36_linear_664_264)"/>
<path d="M640.02 262.341C637.979 265.981 634.453 268.551 630.362 269.38L615.666 272.357C612.937 272.91 612.221 276.475 614.525 278.038L626.995 286.5C630.456 288.848 632.719 292.591 633.19 296.747L635.561 317.648C635.905 320.683 639.939 321.493 641.428 318.826L651.649 300.518C653.683 296.876 657.202 294.3 661.288 293.463L676.171 290.413C678.892 289.855 679.605 286.302 677.311 284.737L664.82 276.22C661.381 273.876 659.131 270.152 658.654 266.017L656.238 245.052C655.889 242.024 651.866 241.216 650.374 243.875L640.02 262.341Z" fill="url(#paint37_radial_664_264)"/>
<path d="M634.056 290.575L631.393 290.04C630.867 289.319 630.215 288.685 629.459 288.172L614.525 278.038C612.221 276.475 612.937 272.91 615.666 272.357L633.274 268.79C635.516 268.336 637.448 266.927 638.567 264.932L650.374 243.875C651.866 241.216 655.889 242.024 656.238 245.052L658.994 268.96C659.255 271.226 660.488 273.267 662.373 274.552L677.311 284.737C679.605 286.302 678.892 289.855 676.171 290.413L631.118 284.125C630.265 284.299 633.413 287.54 634.056 290.575Z" fill="url(#paint38_linear_664_264)"/>
<path d="M634.056 290.575L631.393 290.04C630.867 289.319 630.215 288.685 629.459 288.172L614.525 278.038C612.221 276.475 612.937 272.91 615.666 272.357L633.274 268.79C635.516 268.336 637.448 266.927 638.567 264.932L650.374 243.875C651.866 241.216 655.889 242.024 656.238 245.052L658.994 268.96C659.255 271.226 660.488 273.267 662.373 274.552L677.311 284.737C679.605 286.302 678.892 289.855 676.171 290.413L631.118 284.125C630.265 284.299 633.413 287.54 634.056 290.575Z" fill="url(#paint39_linear_664_264)"/>
<g clip-path="url(#clip3_664_264)">
<path d="M566.687 281.292C564.646 284.932 561.12 287.502 557.029 288.331L542.333 291.308C539.604 291.861 538.888 295.426 541.192 296.989L553.662 305.451C557.123 307.799 559.386 311.542 559.857 315.698L562.228 336.599C562.572 339.634 566.606 340.444 568.095 337.777L578.316 319.469C580.35 315.827 583.869 313.251 587.955 312.414L602.838 309.364C605.559 308.806 606.272 305.253 603.978 303.688L591.487 295.172C588.048 292.827 585.798 289.103 585.321 284.969L582.905 264.003C582.556 260.975 578.533 260.167 577.041 262.826L566.687 281.292Z" fill="url(#paint40_linear_664_264)"/>
<path d="M566.687 281.292C564.646 284.932 561.12 287.502 557.029 288.331L542.333 291.308C539.604 291.861 538.888 295.426 541.192 296.989L553.662 305.451C557.123 307.799 559.386 311.542 559.857 315.698L562.228 336.599C562.572 339.634 566.606 340.444 568.095 337.777L578.316 319.469C580.35 315.827 583.869 313.251 587.955 312.414L602.838 309.364C605.559 308.806 606.272 305.253 603.978 303.688L591.487 295.172C588.048 292.827 585.798 289.103 585.321 284.969L582.905 264.003C582.556 260.975 578.533 260.167 577.041 262.826L566.687 281.292Z" fill="url(#paint41_linear_664_264)"/>
<path d="M566.687 281.292C564.646 284.932 561.12 287.502 557.029 288.331L542.333 291.308C539.604 291.861 538.888 295.426 541.192 296.989L553.662 305.451C557.123 307.799 559.386 311.542 559.857 315.698L562.228 336.599C562.572 339.634 566.606 340.444 568.095 337.777L578.316 319.469C580.35 315.827 583.869 313.251 587.955 312.414L602.838 309.364C605.559 308.806 606.272 305.253 603.978 303.688L591.487 295.172C588.048 292.827 585.798 289.103 585.321 284.969L582.905 264.003C582.556 260.975 578.533 260.167 577.041 262.826L566.687 281.292Z" fill="url(#paint42_linear_664_264)"/>
<path d="M566.687 281.292C564.646 284.932 561.12 287.502 557.029 288.331L542.333 291.308C539.604 291.861 538.888 295.426 541.192 296.989L553.662 305.451C557.123 307.799 559.386 311.542 559.857 315.698L562.228 336.599C562.572 339.634 566.606 340.444 568.095 337.777L578.316 319.469C580.35 315.827 583.869 313.251 587.955 312.414L602.838 309.364C605.559 308.806 606.272 305.253 603.978 303.688L591.487 295.172C588.048 292.827 585.798 289.103 585.321 284.969L582.905 264.003C582.556 260.975 578.533 260.167 577.041 262.826L566.687 281.292Z" fill="url(#paint43_radial_664_264)"/>
<path d="M560.723 309.526L558.06 308.991C557.534 308.27 556.882 307.636 556.126 307.123L541.192 296.989C538.888 295.426 539.604 291.861 542.333 291.308L559.941 287.741C562.183 287.287 564.115 285.878 565.234 283.883L577.041 262.826C578.533 260.167 582.556 260.975 582.905 264.003L585.661 287.911C585.922 290.177 587.155 292.218 589.04 293.503L603.978 303.688C606.272 305.253 605.559 308.806 602.838 309.364L557.785 303.076C556.932 303.251 560.08 306.492 560.723 309.526Z" fill="url(#paint44_linear_664_264)"/>
<path d="M560.723 309.526L558.06 308.991C557.534 308.27 556.882 307.636 556.126 307.123L541.192 296.989C538.888 295.426 539.604 291.861 542.333 291.308L559.941 287.741C562.183 287.287 564.115 285.878 565.234 283.883L577.041 262.826C578.533 260.167 582.556 260.975 582.905 264.003L585.661 287.911C585.922 290.177 587.155 292.218 589.04 293.503L603.978 303.688C606.272 305.253 605.559 308.806 602.838 309.364L557.785 303.076C556.932 303.251 560.08 306.492 560.723 309.526Z" fill="url(#paint45_linear_664_264)"/>
<path d="M558.059 308.989C558.854 310.078 559.365 311.367 559.52 312.737L562.226 336.597C562.57 339.632 566.604 340.442 568.093 337.775L579.762 316.875C580.452 315.639 581.454 314.627 582.649 313.926L558.059 308.989Z" fill="url(#paint46_linear_664_264)"/>
<g filter="url(#filter7_f_664_264)">
<path d="M581.688 265.847L583.169 281.903C583.825 289.023 587.764 295.429 593.821 299.228L601.826 304.25" stroke="url(#paint47_radial_664_264)" stroke-width="1.14686" stroke-linecap="round"/>
</g>
<g filter="url(#filter8_f_664_264)">
<path d="M565.202 340.479L576.389 319.685" stroke="url(#paint48_linear_664_264)" stroke-width="1.14686" stroke-linecap="round"/>
</g>
<g filter="url(#filter9_f_664_264)">
<path d="M564.256 290.296L577.739 265.054" stroke="url(#paint49_linear_664_264)" stroke-width="1.14686" stroke-linecap="round"/>
</g>
</g>
</g>
</g>
<defs>
<filter id="filter0_i_664_264" x="19.3047" y="76.4186" width="113.555" height="33.1903" filterUnits="userSpaceOnUse" color-interpolation-filters="sRGB">
<feFlood flood-opacity="0" result="BackgroundImageFix"/>
<feBlend mode="normal" in="SourceGraphic" in2="BackgroundImageFix" result="shape"/>
<feColorMatrix in="SourceAlpha" type="matrix" values="0 0 0 0 0 0 0 0 0 0 0 0 0 0 0 0 0 0 127 0" result="hardAlpha"/>
<feOffset dy="-1.9125"/>
<feGaussianBlur stdDeviation="3.34687"/>
<feComposite in2="hardAlpha" operator="arithmetic" k2="-1" k3="1"/>
<feColorMatrix type="matrix" values="0 0 0 0 0.411765 0 0 0 0 0.647059 0 0 0 0 0.976471 0 0 0 1 0"/>
<feBlend mode="normal" in2="shape" result="effect1_innerShadow_664_264"/>
</filter>
<filter id="filter1_i_664_264" x="28.2881" y="231.508" width="75.9668" height="30.9845" filterUnits="userSpaceOnUse" color-interpolation-filters="sRGB">
<feFlood flood-opacity="0" result="BackgroundImageFix"/>
<feBlend mode="normal" in="SourceGraphic" in2="BackgroundImageFix" result="shape"/>
<feColorMatrix in="SourceAlpha" type="matrix" values="0 0 0 0 0 0 0 0 0 0 0 0 0 0 0 0 0 0 127 0" result="hardAlpha"/>
<feOffset dy="-1.9125"/>
<feGaussianBlur stdDeviation="3.34687"/>
<feComposite in2="hardAlpha" operator="arithmetic" k2="-1" k3="1"/>
<feColorMatrix type="matrix" values="0 0 0 0 0.411765 0 0 0 0 0.647059 0 0 0 0 0.976471 0 0 0 1 0"/>
<feBlend mode="normal" in2="shape" result="effect1_innerShadow_664_264"/>
</filter>
<filter id="filter2_i_664_264" x="23.7871" y="153.68" width="95.8047" height="32.1488" filterUnits="userSpaceOnUse" color-interpolation-filters="sRGB">
<feFlood flood-opacity="0" result="BackgroundImageFix"/>
<feBlend mode="normal" in="SourceGraphic" in2="BackgroundImageFix" result="shape"/>
<feColorMatrix in="SourceAlpha" type="matrix" values="0 0 0 0 0 0 0 0 0 0 0 0 0 0 0 0 0 0 127 0" result="hardAlpha"/>
<feOffset dy="-1.9125"/>
<feGaussianBlur stdDeviation="3.34687"/>
<feComposite in2="hardAlpha" operator="arithmetic" k2="-1" k3="1"/>
<feColorMatrix type="matrix" values="0 0 0 0 0.411765 0 0 0 0 0.647059 0 0 0 0 0.976471 0 0 0 1 0"/>
<feBlend mode="normal" in2="shape" result="effect1_innerShadow_664_264"/>
</filter>
<filter id="filter3_ii_664_264" x="150.803" y="30.7745" width="400.074" height="172.609" filterUnits="userSpaceOnUse" color-interpolation-filters="sRGB">
<feFlood flood-opacity="0" result="BackgroundImageFix"/>
<feBlend mode="normal" in="SourceGraphic" in2="BackgroundImageFix" result="shape"/>
<feColorMatrix in="SourceAlpha" type="matrix" values="0 0 0 0 0 0 0 0 0 0 0 0 0 0 0 0 0 0 127 0" result="hardAlpha"/>
<feOffset dy="3.825"/>
<feGaussianBlur stdDeviation="4.78125"/>
<feComposite in2="hardAlpha" operator="arithmetic" k2="-1" k3="1"/>
<feColorMatrix type="matrix" values="0 0 0 0 0.87451 0 0 0 0 0.858824 0 0 0 0 0.854902 0 0 0 1 0"/>
<feBlend mode="normal" in2="shape" result="effect1_innerShadow_664_264"/>
<feColorMatrix in="SourceAlpha" type="matrix" values="0 0 0 0 0 0 0 0 0 0 0 0 0 0 0 0 0 0 127 0" result="hardAlpha"/>
<feOffset dy="-1.9125"/>
<feGaussianBlur stdDeviation="3.825"/>
<feComposite in2="hardAlpha" operator="arithmetic" k2="-1" k3="1"/>
<feColorMatrix type="matrix" values="0 0 0 0 0.85098 0 0 0 0 0.737255 0 0 0 0 0.929412 0 0 0 1 0"/>
<feBlend mode="normal" in2="effect1_innerShadow_664_264" result="effect2_innerShadow_664_264"/>
</filter>
<filter id="filter4_f_664_264" x="468.834" y="305.428" width="43.6239" height="76.9496" filterUnits="userSpaceOnUse" color-interpolation-filters="sRGB">
<feFlood flood-opacity="0" result="BackgroundImageFix"/>
<feBlend mode="normal" in="SourceGraphic" in2="BackgroundImageFix" result="shape"/>
<feGaussianBlur stdDeviation="1.43358" result="effect1_foregroundBlur_664_264"/>
</filter>
<filter id="filter5_f_664_264" x="439.901" y="404.793" width="24.9992" height="42.5273" filterUnits="userSpaceOnUse" color-interpolation-filters="sRGB">
<feFlood flood-opacity="0" result="BackgroundImageFix"/>
<feBlend mode="normal" in="SourceGraphic" in2="BackgroundImageFix" result="shape"/>
<feGaussianBlur stdDeviation="0.860145" result="effect1_foregroundBlur_664_264"/>
</filter>
<filter id="filter6_f_664_264" x="436.457" y="303.408" width="32.6282" height="54.0828" filterUnits="userSpaceOnUse" color-interpolation-filters="sRGB">
<feFlood flood-opacity="0" result="BackgroundImageFix"/>
<feBlend mode="normal" in="SourceGraphic" in2="BackgroundImageFix" result="shape"/>
<feGaussianBlur stdDeviation="1.72029" result="effect1_foregroundBlur_664_264"/>
</filter>
<filter id="filter7_f_664_264" x="578.248" y="262.406" width="27.0185" height="45.2843" filterUnits="userSpaceOnUse" color-interpolation-filters="sRGB">
<feFlood flood-opacity="0" result="BackgroundImageFix"/>
<feBlend mode="normal" in="SourceGraphic" in2="BackgroundImageFix" result="shape"/>
<feGaussianBlur stdDeviation="1.43358" result="effect1_foregroundBlur_664_264"/>
</filter>
<filter id="filter8_f_664_264" x="562.908" y="317.391" width="15.7755" height="25.3815" filterUnits="userSpaceOnUse" color-interpolation-filters="sRGB">
<feFlood flood-opacity="0" result="BackgroundImageFix"/>
<feBlend mode="normal" in="SourceGraphic" in2="BackgroundImageFix" result="shape"/>
<feGaussianBlur stdDeviation="0.860145" result="effect1_foregroundBlur_664_264"/>
</filter>
<filter id="filter9_f_664_264" x="560.242" y="261.04" width="21.511" height="33.2698" filterUnits="userSpaceOnUse" color-interpolation-filters="sRGB">
<feFlood flood-opacity="0" result="BackgroundImageFix"/>
<feBlend mode="normal" in="SourceGraphic" in2="BackgroundImageFix" result="shape"/>
<feGaussianBlur stdDeviation="1.72029" result="effect1_foregroundBlur_664_264"/>
</filter>
<linearGradient id="paint0_linear_664_264" x1="259.522" y1="231.754" x2="252.522" y2="219.592" gradientUnits="userSpaceOnUse">
<stop offset="0.2" stop-color="#DAC7DE"/>
<stop offset="1" stop-color="#DAC7DE" stop-opacity="0"/>
</linearGradient>
<linearGradient id="paint1_linear_664_264" x1="139.449" y1="180.129" x2="193.671" y2="185.927" gradientUnits="userSpaceOnUse">
<stop offset="0.0648649" stop-color="#CEB9C1"/>
<stop offset="1" stop-color="#DBCAE1" stop-opacity="0"/>
</linearGradient>
<linearGradient id="paint2_linear_664_264" x1="284.256" y1="158.46" x2="258.246" y2="194.71" gradientUnits="userSpaceOnUse">
<stop offset="0.228652" stop-color="#CAA9DD"/>
<stop offset="1" stop-color="#D5BFE2" stop-opacity="0"/>
</linearGradient>
<linearGradient id="paint3_linear_664_264" x1="530.972" y1="200.256" x2="483.944" y2="194.634" gradientUnits="userSpaceOnUse">
<stop offset="0.142178" stop-color="#F2EDF9"/>
<stop offset="1" stop-color="#EDE3F8"/>
</linearGradient>
<linearGradient id="paint4_linear_664_264" x1="445.202" y1="255.579" x2="464.813" y2="225.691" gradientUnits="userSpaceOnUse">
<stop stop-color="#F6EDFF"/>
<stop offset="1" stop-color="#F6EDFF" stop-opacity="0"/>
</linearGradient>
<linearGradient id="paint5_linear_664_264" x1="378.767" y1="167.281" x2="402.066" y2="197.045" gradientUnits="userSpaceOnUse">
<stop offset="0.0782194" stop-color="#E3D0F4"/>
<stop offset="1" stop-color="#EBDDF9" stop-opacity="0"/>
</linearGradient>
<linearGradient id="paint6_linear_664_264" x1="316.915" y1="177.75" x2="325.724" y2="327.846" gradientUnits="userSpaceOnUse">
<stop stop-color="#E6D9F2"/>
<stop offset="1" stop-color="#E1CEF3"/>
</linearGradient>
<linearGradient id="paint7_linear_664_264" x1="323.028" y1="281.905" x2="326.006" y2="332.655" gradientUnits="userSpaceOnUse">
<stop stop-color="#DAC1F0" stop-opacity="0"/>
<stop offset="1" stop-color="#CCA3EA"/>
</linearGradient>
<linearGradient id="paint8_linear_664_264" x1="416.369" y1="216.559" x2="407.76" y2="230.535" gradientUnits="userSpaceOnUse">
<stop offset="0.311503" stop-color="#F6F1FB"/>
<stop offset="1" stop-color="#E5D6F4" stop-opacity="0"/>
</linearGradient>
<linearGradient id="paint9_linear_664_264" x1="239.673" y1="240.062" x2="243.484" y2="245.909" gradientUnits="userSpaceOnUse">
<stop stop-color="#DCC9D5"/>
<stop offset="1" stop-color="#E6D7F4" stop-opacity="0"/>
</linearGradient>
<radialGradient id="paint10_radial_664_264" cx="0" cy="0" r="1" gradientUnits="userSpaceOnUse" gradientTransform="translate(315.235 182.945) rotate(34.73) scale(30.5231 21.5273)">
<stop stop-color="#D8C2E7"/>
<stop offset="1" stop-color="#D8C2E7" stop-opacity="0"/>
</radialGradient>
<radialGradient id="paint11_radial_664_264" cx="0" cy="0" r="1" gradientUnits="userSpaceOnUse" gradientTransform="translate(28.7911 90.2347) rotate(-3.35876) scale(99.5098 18.3308)">
<stop stop-color="#72FAFF"/>
<stop offset="1" stop-color="#50CBFF"/>
</radialGradient>
<radialGradient id="paint12_radial_664_264" cx="0" cy="0" r="1" gradientUnits="userSpaceOnUse" gradientTransform="translate(130.621 86.0544) rotate(176.641) scale(14.0449 11.6543)">
<stop offset="0.170212" stop-color="#6CE5FF"/>
<stop offset="1" stop-color="#6CE5FF" stop-opacity="0"/>
</radialGradient>
<radialGradient id="paint13_radial_664_264" cx="0" cy="0" r="1" gradientUnits="userSpaceOnUse" gradientTransform="translate(18.6491 85.7411) rotate(27.2598) scale(17.0148 20.3556)">
<stop stop-color="#84CCC1"/>
<stop offset="1" stop-color="#84CCC1" stop-opacity="0"/>
</radialGradient>
<radialGradient id="paint14_radial_664_264" cx="0" cy="0" r="1" gradientUnits="userSpaceOnUse" gradientTransform="translate(34.5146 243.309) rotate(-3.35876) scale(66.5578 18.3308)">
<stop stop-color="#72FAFF"/>
<stop offset="1" stop-color="#50CBFF"/>
</radialGradient>
<radialGradient id="paint15_radial_664_264" cx="0" cy="0" r="1" gradientUnits="userSpaceOnUse" gradientTransform="translate(102.659 241.106) rotate(176.641) scale(9.39404 11.6543)">
<stop offset="0.170212" stop-color="#6CE5FF"/>
<stop offset="1" stop-color="#6CE5FF" stop-opacity="0"/>
</radialGradient>
<radialGradient id="paint16_radial_664_264" cx="0" cy="0" r="1" gradientUnits="userSpaceOnUse" gradientTransform="translate(27.6325 238.624) rotate(38.1452) scale(13.0774 17.7143)">
<stop stop-color="#84CCC1"/>
<stop offset="1" stop-color="#84CCC1" stop-opacity="0"/>
</radialGradient>
<radialGradient id="paint17_radial_664_264" cx="0" cy="0" r="1" gradientUnits="userSpaceOnUse" gradientTransform="translate(31.7341 166.545) rotate(-3.35876) scale(83.9491 18.3308)">
<stop stop-color="#72FAFF"/>
<stop offset="1" stop-color="#50CBFF"/>
</radialGradient>
<radialGradient id="paint18_radial_664_264" cx="0" cy="0" r="1" gradientUnits="userSpaceOnUse" gradientTransform="translate(117.657 163.298) rotate(176.641) scale(11.8487 11.6543)">
<stop offset="0.170212" stop-color="#6CE5FF"/>
<stop offset="1" stop-color="#6CE5FF" stop-opacity="0"/>
</radialGradient>
<radialGradient id="paint19_radial_664_264" cx="0" cy="0" r="1" gradientUnits="userSpaceOnUse" gradientTransform="translate(23.1315 161.961) rotate(31.6924) scale(15.0895 19.3637)">
<stop stop-color="#84CCC1"/>
<stop offset="1" stop-color="#84CCC1" stop-opacity="0"/>
</radialGradient>
<linearGradient id="paint20_linear_664_264" x1="165.537" y1="94.1815" x2="535.448" y2="72.4719" gradientUnits="userSpaceOnUse">
<stop stop-color="#E5DAE4"/>
<stop offset="1" stop-color="#EEE7F3"/>
</linearGradient>
<linearGradient id="paint21_linear_664_264" x1="265.586" y1="156.56" x2="291.774" y2="113.115" gradientUnits="userSpaceOnUse">
<stop stop-color="#DECEE7"/>
<stop offset="1" stop-color="#E9E0EA" stop-opacity="0"/>
</linearGradient>
<linearGradient id="paint22_linear_664_264" x1="150.09" y1="71.1406" x2="203.336" y2="85.3775" gradientUnits="userSpaceOnUse">
<stop stop-color="#D6C0BE"/>
<stop offset="1" stop-color="#E1D0D7" stop-opacity="0"/>
</linearGradient>
<radialGradient id="paint23_radial_664_264" cx="0" cy="0" r="1" gradientUnits="userSpaceOnUse" gradientTransform="translate(542.292 66.6821) rotate(146.961) scale(243.518 92.8468)">
<stop stop-color="#FBF9FE"/>
<stop offset="1" stop-color="#E9E3EB" stop-opacity="0"/>
</radialGradient>
<linearGradient id="paint24_linear_664_264" x1="480.821" y1="302.713" x2="428.132" y2="406.74" gradientUnits="userSpaceOnUse">
<stop stop-color="#FFD542"/>
<stop offset="1" stop-color="#FFA847"/>
</linearGradient>
<linearGradient id="paint25_linear_664_264" x1="438.89" y1="402.32" x2="420.667" y2="448.236" gradientUnits="userSpaceOnUse">
<stop offset="0.458251" stop-color="#E88518" stop-opacity="0"/>
<stop offset="1" stop-color="#E88518"/>
</linearGradient>
<linearGradient id="paint26_linear_664_264" x1="422.102" y1="387.618" x2="374.744" y2="376.788" gradientUnits="userSpaceOnUse">
<stop offset="0.361577" stop-color="#E88518" stop-opacity="0"/>
<stop offset="1" stop-color="#E88518"/>
</linearGradient>
<radialGradient id="paint27_radial_664_264" cx="0" cy="0" r="1" gradientUnits="userSpaceOnUse" gradientTransform="translate(497.119 265.234) rotate(115.181) scale(82.3073 227.409)">
<stop stop-color="#FFFF6B"/>
<stop offset="1" stop-color="#FFFF6B" stop-opacity="0"/>
</radialGradient>
<linearGradient id="paint28_linear_664_264" x1="444.89" y1="367.884" x2="428.598" y2="389.952" gradientUnits="userSpaceOnUse">
<stop offset="0.781564" stop-color="#E88518" stop-opacity="0"/>
<stop offset="1" stop-color="#E88518"/>
</linearGradient>
<linearGradient id="paint29_linear_664_264" x1="444.89" y1="367.884" x2="428.598" y2="389.952" gradientUnits="userSpaceOnUse">
<stop offset="0.781564" stop-color="#E88518" stop-opacity="0"/>
<stop offset="1" stop-color="#E88518"/>
</linearGradient>
<linearGradient id="paint30_linear_664_264" x1="458.967" y1="424.439" x2="433.56" y2="427.645" gradientUnits="userSpaceOnUse">
<stop offset="0.776042" stop-color="#E88518" stop-opacity="0"/>
<stop offset="1" stop-color="#E88518"/>
</linearGradient>
<radialGradient id="paint31_radial_664_264" cx="0" cy="0" r="1" gradientUnits="userSpaceOnUse" gradientTransform="translate(465.071 307.422) rotate(54.4948) scale(89.8856 76.8587)">
<stop stop-color="#FFF270" stop-opacity="0"/>
<stop offset="0.548137" stop-color="#FFF270"/>
<stop offset="1" stop-color="#FFF270" stop-opacity="0"/>
</radialGradient>
<linearGradient id="paint32_linear_664_264" x1="451.448" y1="429.886" x2="444.937" y2="412.115" gradientUnits="userSpaceOnUse">
<stop stop-color="#FFF270" stop-opacity="0"/>
<stop offset="0.494792" stop-color="#FFF270" stop-opacity="0.6"/>
<stop offset="1" stop-color="#FFF270" stop-opacity="0"/>
</linearGradient>
<linearGradient id="paint33_linear_664_264" x1="464.406" y1="303.45" x2="477.779" y2="334.702" gradientUnits="userSpaceOnUse">
<stop stop-color="#FF8A09" stop-opacity="0.6"/>
<stop offset="1" stop-color="#FF8A09" stop-opacity="0"/>
</linearGradient>
<linearGradient id="paint34_linear_664_264" x1="659.705" y1="243.529" x2="630.827" y2="300.545" gradientUnits="userSpaceOnUse">
<stop stop-color="#FFD542"/>
<stop offset="1" stop-color="#FFA847"/>
</linearGradient>
<linearGradient id="paint35_linear_664_264" x1="636.723" y1="298.122" x2="626.735" y2="323.287" gradientUnits="userSpaceOnUse">
<stop offset="0.458251" stop-color="#E88518" stop-opacity="0"/>
<stop offset="1" stop-color="#E88518"/>
</linearGradient>
<linearGradient id="paint36_linear_664_264" x1="627.522" y1="290.064" x2="601.566" y2="284.128" gradientUnits="userSpaceOnUse">
<stop offset="0.361577" stop-color="#E88518" stop-opacity="0"/>
<stop offset="1" stop-color="#E88518"/>
</linearGradient>
<radialGradient id="paint37_radial_664_264" cx="0" cy="0" r="1" gradientUnits="userSpaceOnUse" gradientTransform="translate(668.637 222.988) rotate(115.181) scale(45.1109 124.638)">
<stop stop-color="#FFFF6B"/>
<stop offset="1" stop-color="#FFFF6B" stop-opacity="0"/>
</radialGradient>
<linearGradient id="paint38_linear_664_264" x1="640.011" y1="279.249" x2="631.082" y2="291.343" gradientUnits="userSpaceOnUse">
<stop offset="0.781564" stop-color="#E88518" stop-opacity="0"/>
<stop offset="1" stop-color="#E88518"/>
</linearGradient>
<linearGradient id="paint39_linear_664_264" x1="640.011" y1="279.249" x2="631.082" y2="291.343" gradientUnits="userSpaceOnUse">
<stop offset="0.781564" stop-color="#E88518" stop-opacity="0"/>
<stop offset="1" stop-color="#E88518"/>
</linearGradient>
<linearGradient id="paint40_linear_664_264" x1="586.372" y1="262.481" x2="557.494" y2="319.496" gradientUnits="userSpaceOnUse">
<stop stop-color="#FFD542"/>
<stop offset="1" stop-color="#FFA847"/>
</linearGradient>
<linearGradient id="paint41_linear_664_264" x1="563.39" y1="317.073" x2="553.402" y2="342.239" gradientUnits="userSpaceOnUse">
<stop offset="0.458251" stop-color="#E88518" stop-opacity="0"/>
<stop offset="1" stop-color="#E88518"/>
</linearGradient>
<linearGradient id="paint42_linear_664_264" x1="554.189" y1="309.015" x2="528.233" y2="303.079" gradientUnits="userSpaceOnUse">
<stop offset="0.361577" stop-color="#E88518" stop-opacity="0"/>
<stop offset="1" stop-color="#E88518"/>
</linearGradient>
<radialGradient id="paint43_radial_664_264" cx="0" cy="0" r="1" gradientUnits="userSpaceOnUse" gradientTransform="translate(595.304 241.939) rotate(115.181) scale(45.1109 124.638)">
<stop stop-color="#FFFF6B"/>
<stop offset="1" stop-color="#FFFF6B" stop-opacity="0"/>
</radialGradient>
<linearGradient id="paint44_linear_664_264" x1="566.678" y1="298.2" x2="557.749" y2="310.295" gradientUnits="userSpaceOnUse">
<stop offset="0.781564" stop-color="#E88518" stop-opacity="0"/>
<stop offset="1" stop-color="#E88518"/>
</linearGradient>
<linearGradient id="paint45_linear_664_264" x1="566.678" y1="298.2" x2="557.749" y2="310.295" gradientUnits="userSpaceOnUse">
<stop offset="0.781564" stop-color="#E88518" stop-opacity="0"/>
<stop offset="1" stop-color="#E88518"/>
</linearGradient>
<linearGradient id="paint46_linear_664_264" x1="574.392" y1="329.192" x2="560.467" y2="330.948" gradientUnits="userSpaceOnUse">
<stop offset="0.776042" stop-color="#E88518" stop-opacity="0"/>
<stop offset="1" stop-color="#E88518"/>
</linearGradient>
<radialGradient id="paint47_radial_664_264" cx="0" cy="0" r="1" gradientUnits="userSpaceOnUse" gradientTransform="translate(577.74 265.054) rotate(54.4948) scale(49.2644 42.1246)">
<stop stop-color="#FFF270" stop-opacity="0"/>
<stop offset="0.548137" stop-color="#FFF270"/>
<stop offset="1" stop-color="#FFF270" stop-opacity="0"/>
</radialGradient>
<linearGradient id="paint48_linear_664_264" x1="570.274" y1="332.181" x2="566.705" y2="322.44" gradientUnits="userSpaceOnUse">
<stop stop-color="#FFF270" stop-opacity="0"/>
<stop offset="0.494792" stop-color="#FFF270" stop-opacity="0.6"/>
<stop offset="1" stop-color="#FFF270" stop-opacity="0"/>
</linearGradient>
<linearGradient id="paint49_linear_664_264" x1="577.375" y1="262.877" x2="584.704" y2="280.006" gradientUnits="userSpaceOnUse">
<stop stop-color="#FF8A09" stop-opacity="0.6"/>
<stop offset="1" stop-color="#FF8A09" stop-opacity="0"/>
</linearGradient>
<clipPath id="clip0_664_264">
<rect width="620" height="485" fill="white"/>
</clipPath>
<clipPath id="clip1_664_264">
<rect width="550.802" height="342.633" fill="white" transform="translate(0.751953 33.071) rotate(-3.35876)"/>
</clipPath>
<clipPath id="clip2_664_264">
<rect width="231.913" height="245.161" fill="white" transform="translate(391.954 198.007) rotate(11.3529)"/>
</clipPath>
<clipPath id="clip3_664_264">
<rect width="152.309" height="366.995" fill="white" transform="translate(548.711 161.58) rotate(11.3529)"/>
</clipPath>
</defs>
</svg>
